<svg width="113" height="121" viewBox="0 0 113 121" fill="none" xmlns="http://www.w3.org/2000/svg">
<path d="M68.5429 112.383L72.0508 112.424V112.401V112.379H68.5429V112.383ZM68.5429 116.397L70.113 119.547L70.2027 119.502L70.2924 119.452L68.5429 116.402V116.397ZM100.594 97.9039L102.343 100.955L100.589 97.9039H100.594ZM47.6526 5.89272L49.4065 8.94341H49.411L47.6526 5.89272ZM12.3539 97.9039L10.5999 100.955L10.6268 100.968L10.6538 100.982L12.3539 97.9039ZM45.5936 116.397L43.8935 119.475C44.9791 120.078 46.3069 120.064 47.3745 119.43C48.4466 118.795 49.1015 117.643 49.1015 116.397H45.5936ZM65.035 104.406V112.383H72.0553V104.406H65.035ZM68.5429 112.383L65.035 112.343C65.035 112.343 65.035 112.352 65.035 112.356C65.035 112.365 65.035 112.374 65.035 112.392C65.035 112.424 65.035 112.464 65.035 112.523C65.035 112.635 65.035 112.793 65.0306 112.982C65.0306 113.364 65.0216 113.873 65.0171 114.381C65.0171 114.885 65.0171 115.407 65.0171 115.803C65.0171 115.997 65.0171 116.186 65.0261 116.339C65.0261 116.406 65.0306 116.519 65.0395 116.636C65.0395 116.672 65.053 116.834 65.0889 117.031C65.0978 117.081 65.1562 117.414 65.3221 117.801C65.3849 117.94 65.6361 118.534 66.2417 119.061C66.5871 119.362 67.1523 119.731 67.9329 119.871C68.7583 120.015 69.5163 119.848 70.1085 119.551L66.9684 113.256C67.5605 112.959 68.3186 112.793 69.144 112.937C69.929 113.076 70.4898 113.445 70.8352 113.747C71.1716 114.039 71.3824 114.336 71.4991 114.521C71.6202 114.714 71.7054 114.885 71.7548 115.002C71.8535 115.227 71.9073 115.416 71.9297 115.506C71.9566 115.61 71.9746 115.7 71.9835 115.754C72.0194 115.938 72.0284 116.078 72.0284 116.087C72.0329 116.15 72.0329 116.177 72.0284 116.136C72.0284 116.073 72.0284 115.952 72.0239 115.767C72.0239 115.412 72.0239 114.93 72.0239 114.426C72.0239 113.931 72.0329 113.432 72.0329 113.054C72.0329 112.865 72.0329 112.712 72.0374 112.599C72.0374 112.545 72.0374 112.5 72.0374 112.473C72.0374 112.46 72.0374 112.446 72.0374 112.442C72.0374 112.442 72.0374 112.437 72.0374 112.433C72.0374 112.433 72.0374 112.433 68.5295 112.388L68.5429 112.383ZM70.2924 119.448L102.343 100.955L98.8445 94.8532L66.7935 113.346L70.2924 119.448ZM102.348 100.955C108.906 97.157 112.948 90.1557 112.948 82.5605H105.928C105.928 87.636 103.232 92.32 98.84 94.8577L102.348 100.955ZM112.948 82.556V41.6776H105.928V82.556H112.948ZM112.948 41.6776C112.948 34.0824 108.906 27.0766 102.348 23.2835L98.84 29.3803C103.232 31.9226 105.928 36.6021 105.928 41.6776H112.948ZM102.348 23.2835L67.0716 2.84652L63.5637 8.94341L98.84 29.3803L102.348 23.2835ZM67.0716 2.84652C60.5134 -0.946592 52.4389 -0.951091 45.8942 2.84652L49.411 8.93891C53.7712 6.40567 59.1676 6.40117 63.5592 8.93891L67.0671 2.84203L67.0716 2.84652ZM45.8986 2.84652L10.5999 23.2835L14.1078 29.3803L49.4065 8.94341L45.8986 2.84652ZM10.5999 23.2835C4.0417 27.0811 0 34.0824 0 41.6776H7.02027C7.02027 36.6021 9.71623 31.9181 14.1078 29.3803L10.5999 23.2835ZM0 41.6776V82.556H7.02027V41.6776H0ZM0 82.556C0 90.1512 4.0417 97.157 10.5999 100.95L14.1078 94.8532C9.71623 92.311 7.02027 87.6314 7.02027 82.556H0ZM10.6493 100.982L43.8935 119.475L47.2982 113.319L14.054 94.8262L10.6493 100.982ZM49.106 116.397V112.383H42.0857V116.397H49.106ZM49.106 112.383V104.406H42.0857V112.383H49.106Z" fill="#F3F6F9"/>
<path fill-rule="evenodd" clip-rule="evenodd" d="M80.2418 67.7207C81.5024 68.3551 82.9244 68.7106 84.4271 68.7106C85.414 68.7106 86.365 68.5576 87.2576 68.2742V91.5458L86.2304 92.5762L72.0508 106.799V110.034H65.0305V103.884L66.0578 102.853L80.2374 88.6301V67.7207H80.2418Z" fill="#F3F6F9"/>
<path d="M92.8739 58.1775C92.8739 53.6419 89.209 49.9658 84.6873 49.9658C80.1656 49.9658 76.5007 53.6419 76.5007 58.1775C76.5007 62.713 80.1656 66.3892 84.6873 66.3892C89.209 66.3892 92.8739 62.713 92.8739 58.1775Z" fill="#E4C535"/>
<path fill-rule="evenodd" clip-rule="evenodd" d="M52.9637 29.4972C53.982 29.8797 55.0855 30.0866 56.2383 30.0866C57.5706 30.0866 58.8356 29.8077 59.9795 29.3037V59.5362H52.9592V29.4972H52.9637ZM52.9637 59.5362H59.984V66.5779L52.9637 59.5362Z" fill="#F3F6F9"/>
<path d="M64.3353 19.3596C64.3353 14.8241 60.6704 11.1479 56.1487 11.1479C51.6271 11.1479 47.9622 14.8241 47.9622 19.3596C47.9622 23.8952 51.6271 27.5713 56.1487 27.5713C60.6704 27.5713 64.3353 23.8952 64.3353 19.3596Z" fill="#5CB04D"/>
<path fill-rule="evenodd" clip-rule="evenodd" d="M40.4933 48.1435C40.8387 48.184 41.1931 48.202 41.5474 48.202C43.8217 48.202 45.9121 47.3876 47.5315 46.0332L47.361 62.3171L59.7328 75.5772L60.6794 76.5941V117.333C60.6794 119.277 59.1093 120.852 57.1715 120.852C55.2336 120.852 53.6636 119.277 53.6636 117.333V79.3748L41.2738 66.1012L40.3138 65.0708L40.3273 63.6579L40.4888 48.148L40.4933 48.1435Z" fill="#F3F6F9"/>
<path d="M49.0118 37.8933C49.0118 33.3578 45.3469 29.6816 40.8252 29.6816C36.3035 29.6816 32.6386 33.3578 32.6386 37.8933C32.6386 42.4289 36.3035 46.105 40.8252 46.105C45.3469 46.105 49.0118 42.4289 49.0118 37.8933Z" fill="#43658C"/>
<path fill-rule="evenodd" clip-rule="evenodd" d="M66.789 47.5586C68.4712 49.1784 70.7544 50.1728 73.271 50.1728C73.4504 50.1728 73.6298 50.1683 73.8093 50.1593V85.5213L72.8628 86.5382L59.5041 100.851L54.3813 96.0412L66.7935 82.7405V47.5586H66.789Z" fill="#F3F6F9"/>
<path d="M81.646 39.6077C81.646 35.0721 77.9811 31.396 73.4594 31.396C68.9377 31.396 65.2728 35.0721 65.2728 39.6077C65.2728 44.1432 68.9377 47.8193 73.4594 47.8193C77.9811 47.8193 81.646 44.1432 81.646 39.6077Z" fill="#DB3C2D"/>
<path fill-rule="evenodd" clip-rule="evenodd" d="M28.5162 72.9989C29.0096 73.0799 29.521 73.1204 30.0369 73.1204C32.0914 73.1204 33.9933 72.4545 35.5364 71.3296V78.0789L48.146 91.4471L49.106 92.464V104.685H42.0857V95.2672L29.4761 81.899L28.5162 80.8821V72.9989Z" fill="#F3F6F9"/>
<path d="M37.7569 62.6497C37.7569 58.1141 34.092 54.438 29.5704 54.438C25.0487 54.438 21.3838 58.1141 21.3838 62.6497C21.3838 67.1852 25.0487 70.8613 29.5704 70.8613C34.092 70.8613 37.7569 67.1852 37.7569 62.6497Z" fill="#CCCCCC"/>
</svg>
